<svg width="93" height="27" viewBox="0 0 93 27" fill="none" xmlns="http://www.w3.org/2000/svg">
<g clip-path="url(#clip0_135_1025)">
<path d="M39.3341 26.2833C39.3341 26.036 39.0832 25.8628 38.8547 25.9584C37.722 26.4314 36.5397 26.6672 35.3063 26.6672H33.3701C32.0713 26.6672 30.8444 26.4192 29.6887 25.9239C28.533 25.4285 27.526 24.7513 26.6679 23.8929C25.8097 23.0345 25.1327 22.0273 24.6375 20.8712C24.1423 19.7152 23.895 18.488 23.895 17.1888C23.895 15.8897 24.1423 14.6625 24.6375 13.5065C25.1327 12.3504 25.8097 11.3432 26.6679 10.4848C27.526 9.6264 28.533 8.94917 29.6887 8.45383C30.8444 7.95848 32.0713 7.71045 33.3701 7.71045H35.3063C36.0329 7.71045 36.7308 7.78809 37.4029 7.94195C37.9024 8.05697 38.3875 8.20867 38.8568 8.39631C39.0861 8.48833 39.3341 8.31795 39.3341 8.07063V8.06129C39.3341 7.86718 39.4915 7.71045 39.6848 7.71045H44.4306C44.6247 7.71045 44.7813 7.8679 44.7813 8.06129V26.2826C44.7813 26.4767 44.6239 26.6335 44.4306 26.6335H39.6848C39.4908 26.6335 39.3341 26.476 39.3341 26.2826V26.2833ZM35.3063 21.2177C35.8561 21.2177 36.3794 21.1135 36.8746 20.9043C37.3698 20.6951 37.7989 20.4089 38.1618 20.0459C38.5255 19.6821 38.8108 19.2529 39.02 18.7576C39.2291 18.2622 39.3334 17.7395 39.3334 17.1888C39.3334 16.6381 39.2284 16.1155 39.02 15.6201C38.8108 15.1248 38.5248 14.6956 38.1618 14.3325C37.7989 13.9695 37.3698 13.6833 36.8746 13.4741C36.3794 13.2649 35.8561 13.1607 35.3063 13.1607H33.3701C32.8195 13.1607 32.297 13.2656 31.8018 13.4741C31.3066 13.6841 30.8775 13.9695 30.5145 14.3325C30.1516 14.6956 29.8648 15.1255 29.6564 15.6201C29.4465 16.1155 29.343 16.6389 29.343 17.1888C29.343 17.7388 29.4472 18.2622 29.6564 18.7576C29.8655 19.2529 30.1516 19.6821 30.5145 20.0459C30.8775 20.4089 31.3066 20.6958 31.8018 20.9043C32.297 21.1135 32.8195 21.2177 33.3701 21.2177H35.3063Z" fill="#F9E4C0"/>
<path d="M76.1073 17.1881C76.1073 18.488 75.86 19.7152 75.3641 20.8705C74.8689 22.0265 74.1918 23.0338 73.3337 23.8922C72.4755 24.7506 71.4736 25.4278 70.3294 25.9232C69.1844 26.4185 67.9518 26.6665 66.6315 26.6665H64.2094C62.8884 26.6665 61.6557 26.4185 60.5115 25.9239C59.3666 25.4285 58.3654 24.7513 57.5065 23.8929C56.6483 23.0345 55.9713 22.0273 55.4761 20.8712C54.9809 19.7152 54.7336 18.488 54.7336 17.1888C54.7336 15.8897 54.9809 14.6625 55.4761 13.5065C55.9713 12.3504 56.6483 11.3432 57.5065 10.4848C58.3647 9.6264 59.3666 8.94917 60.5115 8.45383C61.6557 7.95848 62.8884 7.71045 64.2094 7.71045H66.6315C67.9525 7.71045 69.1844 7.95776 70.3294 8.45311C71.4736 8.94845 72.4755 9.62568 73.3337 10.4841C74.1918 11.3425 74.8689 12.3497 75.3641 13.5058C75.8593 14.6618 76.1073 15.889 76.1073 17.1881ZM66.6315 21.2177C67.1813 21.2177 67.7046 21.1135 68.1998 20.9043C68.695 20.6951 69.1241 20.4089 69.4878 20.0459C69.8507 19.6821 70.1368 19.2529 70.3459 18.7576C70.5551 18.2622 70.6593 17.7395 70.6593 17.1888C70.6593 16.6381 70.5551 16.1155 70.3459 15.6201C70.136 15.1248 69.8507 14.6956 69.4878 14.3325C69.1241 13.9695 68.695 13.6833 68.1998 13.4741C67.7046 13.2649 67.1813 13.1607 66.6315 13.1607H64.2094C63.6366 13.1607 63.109 13.2656 62.6246 13.4748C62.1402 13.6848 61.7168 13.9702 61.3539 14.3333C60.9902 14.697 60.7041 15.1262 60.4957 15.6209C60.2858 16.1162 60.1823 16.6396 60.1823 17.1896C60.1823 17.7395 60.2866 18.2629 60.4957 18.7583C60.7049 19.2536 60.9909 19.6828 61.3539 20.0466C61.7168 20.4097 62.1409 20.6965 62.6246 20.905C63.1083 21.1142 63.6366 21.2185 64.2094 21.2185H66.6315V21.2177Z" fill="#F9E4C0"/>
<path fill-rule="evenodd" clip-rule="evenodd" d="M47.4771 3.19729L52.4759 0.791742C52.5477 0.740698 52.6333 0.713379 52.721 0.713379C52.9553 0.713379 53.145 0.903177 53.145 1.13755V26.0665C53.145 26.3979 52.8762 26.6675 52.5441 26.6675H47.365C47.1307 26.6675 46.9409 26.4777 46.9409 26.2434V4.23399C46.9409 3.82204 47.1407 3.43597 47.4764 3.19729H47.4771Z" fill="#F9E4C0"/>
<path d="M22.4573 25.8811V25.8732C22.4257 25.6043 22.4113 25.3405 22.4113 25.0831V21.3957C22.4113 20.2253 22.2015 19.2597 21.7817 18.4984C21.3613 17.7378 20.7245 17.1288 19.8699 16.6723C19.126 16.2755 18.2161 15.9843 17.1423 15.7995L21.2614 9.53691C21.5618 9.08038 21.2341 8.47217 20.6878 8.47217H15.0134C14.787 8.47217 14.575 8.5836 14.4471 8.77052L10.2173 14.9361H10.2238L7.70969 18.6487C7.45454 19.0254 7.72407 19.5351 8.17974 19.5351H11.8855C13.2346 19.5351 14.2171 19.7695 14.8323 20.2375C15.4468 20.7062 15.7545 21.4201 15.7545 22.3792V25.3297C15.7545 25.5871 15.7695 25.8157 15.7997 26.0148C15.8033 26.0386 15.8069 26.063 15.8112 26.0874C15.8651 26.4196 16.1533 26.664 16.4904 26.664H21.7551C22.1756 26.664 22.5026 26.3002 22.4588 25.8818L22.4573 25.8811Z" fill="#F9E4C0"/>
<path fill-rule="evenodd" clip-rule="evenodd" d="M0.967319 3.19449L6.33696 0.796137C6.41386 0.745093 6.50586 0.717773 6.60001 0.717773C6.85157 0.717773 7.05497 0.907571 7.05497 1.14194V26.063C7.05497 26.3944 6.76604 26.664 6.41027 26.664H0.847291C0.595735 26.6633 0.392334 26.4735 0.392334 26.2399V4.23119C0.392334 3.81925 0.606516 3.43318 0.967319 3.19449Z" fill="#F9E4C0"/>
<path d="M91.7832 7.31607H88.9809C86.7571 7.31607 84.8647 7.60005 83.2979 8.16369V7.41528C83.2979 7.12052 83.0592 6.88184 82.7646 6.88184H78.2301C77.9354 6.88184 77.6968 7.12052 77.6968 7.41528V16.7621C77.6968 16.7743 77.6997 16.7858 77.7004 16.7973C77.6997 16.862 77.6968 16.9253 77.6968 16.9907V26.3153C77.6968 26.5094 77.8542 26.6661 78.0475 26.6661H82.9881C83.1821 26.6661 83.3388 26.5087 83.3388 26.3153V16.9907C83.3388 13.7656 85.2197 12.153 88.9816 12.153H90.1064C90.6203 12.153 91.0616 11.795 91.1665 11.2918C91.4375 9.98762 92.1346 7.66619 92.1346 7.66619C92.1346 7.4728 91.978 7.31535 91.7839 7.31535L91.7832 7.31607Z" fill="#F9E4C0"/>
</g>
<defs>
<clipPath id="clip0_135_1025">
<rect width="91.7425" height="25.9534" fill="white" transform="translate(0.392334 0.713379)"/>
</clipPath>
</defs>
</svg>
